                                                                        S      1
,,11HMotorHolder,11HMotorHolder,7Hunknown,7Hunknown,32,38,7,99,15,,1.,2,G      1
2HMM,1,0.08,15H20170531.122212,0.01,10000.,7Hunknown,7Hunknown,11,0,;   G      2
     186       1                                                00000000D      1
     186            -241       1       0                               0D      2
     514       2                                                00010000D      3
     514                       2       1                               0D      4
     510       4                                                00010000D      5
     510            -241       1       1                               0D      6
     510       5                                                00010000D      7
     510            -241       1       1                               0D      8
     510       6                                                00010000D      9
     510            -241       1       1                               0D     10
     510       7                                                00010000D     11
     510            -241       1       1                               0D     12
     510       8                                                00010000D     13
     510            -241       1       1                               0D     14
     510       9                                                00010000D     15
     510            -241       1       1                               0D     16
     510      10                                                00010000D     17
     510            -241       1       1                               0D     18
     510      11                                                00010000D     19
     510            -241       1       1                               0D     20
     510      12                                                00010000D     21
     510            -241       1       1                               0D     22
     510      13                                                00010000D     23
     510            -241       1       1                               0D     24
     510      14                                                00010000D     25
     510            -241       1       1                               0D     26
     510      15                                                00010000D     27
     510            -241       1       1                               0D     28
     510      16                                                00010000D     29
     510            -241       1       1                               0D     30
     510      17                                                00010000D     31
     510            -241       1       1                               0D     32
     510      18                                                00010000D     33
     510            -241       1       1                               0D     34
     510      19                                                00010000D     35
     510            -241       1       1                               0D     36
     510      20                                                00010000D     37
     510            -241       1       1                               0D     38
     510      21                                                00010000D     39
     510            -241       1       1                               0D     40
     510      22                                                00010000D     41
     510            -241       1       1                               0D     42
     510      23                                                00010000D     43
     510            -241       1       1                               0D     44
     508      24                                                00010000D     45
     508                       1       1                               0D     46
     508      25                                                00010000D     47
     508                       2       1                               0D     48
     508      27                                                00010000D     49
     508                       1       1                               0D     50
     508      28                                                00010000D     51
     508                       1       1                               0D     52
     508      29                                                00010000D     53
     508                       1       1                               0D     54
     508      30                                                00010000D     55
     508                       1       1                               0D     56
     508      31                                                00010000D     57
     508                       2       1                               0D     58
     508      33                                                00010000D     59
     508                       1       1                               0D     60
     508      34                                                00010000D     61
     508                       2       1                               0D     62
     508      36                                                00010000D     63
     508                       2       1                               0D     64
     508      38                                                00010000D     65
     508                       1       1                               0D     66
     508      39                                                00010000D     67
     508                       1       1                               0D     68
     508      40                                                00010000D     69
     508                       1       1                               0D     70
     508      41                                                00010000D     71
     508                       1       1                               0D     72
     508      42                                                00010000D     73
     508                       1       1                               0D     74
     508      43                                                00010000D     75
     508                       1       1                               0D     76
     508      44                                                00010000D     77
     508                       2       1                               0D     78
     508      46                                                00010000D     79
     508                       1       1                               0D     80
     508      47                                                00010000D     81
     508                       2       1                               0D     82
     508      49                                                00010000D     83
     508                       1       1                               0D     84
     508      50                                                00010000D     85
     508                       2       1                               0D     86
     508      52                                                00010000D     87
     508                       1       1                               0D     88
     508      53                                                00010000D     89
     508                       1       1                               0D     90
     508      54                                                00010000D     91
     508                       1       1                               0D     92
     508      55                                                00010000D     93
     508                       1       1                               0D     94
     126      56                                                00010000D     95
     126       0               2       0                               0D     96
     126      58                                                00010000D     97
     126       0               2       0                               0D     98
     126      60                                                00010000D     99
     126       0               2       0                               0D    100
     126      62                                                00010000D    101
     126       0               2       0                               0D    102
     126      64                                                00010000D    103
     126       0               2       0                               0D    104
     126      66                                                00010000D    105
     126       0               2       0                               0D    106
     126      68                                                00010000D    107
     126       0               2       0                               0D    108
     126      70                                                00010000D    109
     126       0               2       0                               0D    110
     126      72                                                00010000D    111
     126       0               2       0                               0D    112
     126      74                                                00010000D    113
     126       0               2       0                               0D    114
     126      76                                                00010000D    115
     126       0               2       0                               0D    116
     126      78                                                00010000D    117
     126       0               2       0                               0D    118
     126      80                                                00010000D    119
     126       0               2       0                               0D    120
     126      82                                                00010000D    121
     126       0               2       0                               0D    122
     126      84                                                00010000D    123
     126       0               2       0                               0D    124
     126      86                                                00010000D    125
     126       0               2       0                               0D    126
     126      88                                                00010000D    127
     126       0               2       0                               0D    128
     126      90                                                00010000D    129
     126       0               2       0                               0D    130
     126      92                                                00010000D    131
     126       0               2       0                               0D    132
     126      94                                                00010000D    133
     126       0               2       0                               0D    134
     126      96                                                00010000D    135
     126       0               2       0                               0D    136
     126      98                                                00010000D    137
     126       0               2       0                               0D    138
     126     100                                                00010000D    139
     126       0               2       0                               0D    140
     126     102                                                00010000D    141
     126       0               2       0                               0D    142
     126     104                                                00010000D    143
     126       0               2       0                               0D    144
     126     106                                                00010000D    145
     126       0               2       0                               0D    146
     126     108                                                00010000D    147
     126       0               2       0                               0D    148
     126     110                                                00010000D    149
     126       0               2       0                               0D    150
     126     112                                                00010000D    151
     126       0               2       0                               0D    152
     126     114                                                00010000D    153
     126       0               2       0                               0D    154
     126     116                                                00010000D    155
     126       0               2       0                               0D    156
     126     118                                                00010000D    157
     126       0               2       0                               0D    158
     126     120                                                00010000D    159
     126       0              12       0                               0D    160
     126     132                                                00010000D    161
     126       0              11       0                               0D    162
     126     143                                                00010000D    163
     126       0               2       0                               0D    164
     126     145                                                00010000D    165
     126       0              11       0                               0D    166
     126     156                                                00010000D    167
     126       0               6       0                               0D    168
     126     162                                                00010000D    169
     126       0               7       0                               0D    170
     126     169                                                00010000D    171
     126       0               3       0                               0D    172
     126     172                                                00010000D    173
     126       0              11       0                               0D    174
     126     183                                                00010000D    175
     126       0               3       0                               0D    176
     126     186                                                00010000D    177
     126       0              12       0                               0D    178
     126     198                                                00010000D    179
     126       0               2       0                               0D    180
     126     200                                                00010000D    181
     126       0               2       0                               0D    182
     126     202                                                00010000D    183
     126       0               2       0                               0D    184
     126     204                                                00010000D    185
     126       0               2       0                               0D    186
     126     206                                                00010000D    187
     126       0               2       0                               0D    188
     126     208                                                00010000D    189
     126       0               2       0                               0D    190
     126     210                                                00010000D    191
     126       0               2       0                               0D    192
     126     212                                                00010000D    193
     126       0               2       0                               0D    194
     128     214                                                00010000D    195
     128       0    -241       4       0                               0D    196
     128     218                                                00010000D    197
     128       0    -241       4       0                               0D    198
     128     222                                                00010000D    199
     128       0    -241       4       0                               0D    200
     128     226                                                00010000D    201
     128       0    -241       5       0                               0D    202
     128     231                                                00010000D    203
     128       0    -241       5       0                               0D    204
     128     236                                                00010000D    205
     128       0    -241       4       0                               0D    206
     128     240                                                00010000D    207
     128       0    -241       4       0                               0D    208
     128     244                                                00010000D    209
     128       0    -241       4       0                               0D    210
     128     248                                                00010000D    211
     128       0    -241       4       0                               0D    212
     128     252                                                00010000D    213
     128       0    -241       4       0                               0D    214
     128     256                                                00010000D    215
     128       0    -241       4       0                               0D    216
     128     260                                                00010000D    217
     128       0    -241      17       0                               0D    218
     128     277                                                00010000D    219
     128       0    -241       4       0                               0D    220
     128     281                                                00010000D    221
     128       0    -241      17       0                               0D    222
     128     298                                                00010000D    223
     128       0    -241      20       0                               0D    224
     128     318                                                00010000D    225
     128       0    -241       4       0                               0D    226
     128     322                                                00010000D    227
     128       0    -241       4       0                               0D    228
     128     326                                                00010000D    229
     128       0    -241       4       0                               0D    230
     128     330                                                00010000D    231
     128       0    -241       4       0                               0D    232
     128     334                                                00010000D    233
     128       0    -241       4       0                               0D    234
     502     338                                                00010000D    235
     502                      17       1                               0D    236
     504     355                                                00010001D    237
     504                      14       1                               0D    238
     406     369                                                00000000D    239
     406                       1      15                               0D    240
     314     370                                                00000200D    241
     314                       2       0                               0D    242
186,3,1,0,0,1,239;                                                     1P      1
514,20,5,1,7,1,9,1,11,1,13,1,15,1,17,1,19,1,21,1,23,1,25,1,27,1,       3P      2
29,1,31,1,33,1,35,1,37,1,39,1,41,1,43,1;                               3P      3
510,195,1,1,45;                                                        5P      4
510,197,1,1,47;                                                        7P      5
510,199,1,1,49;                                                        9P      6
510,201,1,1,51;                                                       11P      7
510,203,1,1,53;                                                       13P      8
510,205,1,1,55;                                                       15P      9
510,207,1,1,57;                                                       17P     10
510,209,1,1,59;                                                       19P     11
510,211,1,1,61;                                                       21P     12
510,213,1,1,63;                                                       23P     13
510,215,3,1,65,67,69;                                                 25P     14
510,217,1,1,71;                                                       27P     15
510,219,2,1,73,75;                                                    29P     16
510,221,1,1,77;                                                       31P     17
510,223,1,1,79;                                                       33P     18
510,225,1,1,81;                                                       35P     19
510,227,1,1,83;                                                       37P     20
510,229,1,1,85;                                                       39P     21
510,231,1,1,87;                                                       41P     22
510,233,3,1,89,91,93;                                                 43P     23
508,4,0,237,1,0,0,0,237,2,0,0,0,237,3,1,0,0,237,4,0,0;                45P     24
508,6,0,237,5,0,0,0,237,4,1,0,0,237,6,0,0,0,237,7,1,0,0,237,8,1,      47P     25
0,0,237,9,1,0;                                                        47P     26
508,4,0,237,6,1,0,0,237,10,1,0,0,237,11,0,0,0,237,12,0,0;             49P     27
508,4,0,237,13,0,0,0,237,14,0,0,0,237,15,0,0,0,237,16,0,0;            51P     28
508,4,0,237,15,1,0,0,237,17,0,0,0,237,18,1,0,0,237,19,0,0;            53P     29
508,4,0,237,5,1,0,0,237,20,1,0,0,237,21,0,0,0,237,22,0,0;             55P     30
508,7,0,237,14,1,0,0,237,23,0,0,0,237,24,0,0,0,237,1,1,0,0,237,       57P     31
22,1,0,0,237,25,0,0,0,237,17,1,0;                                     57P     32
508,4,0,237,13,1,0,0,237,26,0,0,0,237,27,0,0,0,237,23,1,0;            59P     33
508,7,0,237,19,1,0,0,237,28,0,0,0,237,10,0,0,0,237,3,0,0,0,237,       61P     34
29,0,0,0,237,26,1,0,0,237,16,1,0;                                     61P     35
508,8,0,237,30,1,0,0,237,11,1,0,0,237,28,1,0,0,237,18,0,0,0,237,      63P     36
25,1,0,0,237,21,1,0,0,237,31,1,0,0,237,32,1,0;                        63P     37
508,4,0,237,2,1,0,0,237,24,1,0,0,237,27,1,0,0,237,29,1,0;             65P     38
508,1,0,237,33,1,0;                                                   67P     39
508,1,0,237,34,1,0;                                                   69P     40
508,4,0,237,34,0,0,0,237,35,1,0,0,237,36,1,0,0,237,35,0,0;            71P     41
508,1,0,237,36,0,0;                                                   73P     42
508,2,0,237,37,0,0,0,237,38,0,0;                                      75P     43
508,5,0,237,37,1,0,0,237,39,1,0,0,237,40,1,0,0,237,39,0,0,0,237,      77P     44
38,1,0;                                                               77P     45
508,4,0,237,33,0,0,0,237,41,1,0,0,237,42,1,0,0,237,41,0,0;            79P     46
508,6,0,237,43,0,0,0,237,44,1,0,0,237,31,0,0,0,237,20,0,0,0,237,      81P     47
9,0,0,0,237,45,0,0;                                                   81P     48
508,4,0,237,46,0,0,0,237,45,1,0,0,237,8,0,0,0,237,47,0,0;             83P     49
508,6,0,237,48,0,0,0,237,47,1,0,0,237,7,0,0,0,237,12,1,0,0,237,       85P     50
30,0,0,0,237,49,0,0;                                                  85P     51
508,4,0,237,50,0,0,0,237,49,1,0,0,237,32,0,0,0,237,44,0,0;            87P     52
508,4,0,237,50,1,0,0,237,43,1,0,0,237,46,1,0,0,237,48,1,0;            89P     53
508,1,0,237,42,0,0;                                                   91P     54
508,1,0,237,40,0,0;                                                   93P     55
126,1,1,0,0,1,0,0.,0.,0.4,0.4,1.,1.,-22.4302242948705,7.,-22.,        95P     56
-22.4302242948705,11.,-22.,0.,0.4,0.,0.,0.;                           95P     57
126,1,1,0,0,1,0,-1.6,-1.6,0.4,0.4,1.,1.,-2.43022429487046,7.,         97P     58
-22.,-22.4302242948705,7.,-22.,-1.6,0.4,0.,0.,0.;                     97P     59
126,1,1,0,0,1,0,0.,0.,0.4,0.4,1.,1.,-2.43022429487046,7.,-22.,        99P     60
-2.43022429487046,11.,-22.,0.,0.4,0.,0.,0.;                           99P     61
126,1,1,0,0,1,0,-2.2,-2.2,-0.2,-0.2,1.,1.,-22.4302242948705,11.,     101P     62
-22.,-2.43022429487046,11.,-22.,-2.2,-0.2,0.,0.,0.;                  101P     63
126,1,1,0,0,1,0,0.5,0.5,0.7,0.7,1.,1.,-22.4302242948705,11.,         103P     64
-22.,-24.4302242948705,11.,-22.,0.5,0.7,0.,0.,0.;                    103P     65
126,1,1,0,0,1,0,-0.6,-0.6,-0.4,-0.4,1.,1.,-0.430224294870465,        105P     66
11.,-22.,-2.43022429487046,11.,-22.,-0.6,-0.4,0.,0.,0.;              105P     67
126,1,1,0,0,1,0,-0.2,-0.2,0.,0.,1.,1.,-0.430224294870465,11.,        107P     68
-22.,-0.430224294870465,11.,-24.,-0.2,0.,0.,0.,0.;                   107P     69
126,1,1,0,0,1,0,-2.4,-2.4,0.,0.,1.,1.,-0.430224294870465,11.,        109P     70
-24.,-24.4302242948705,11.,-24.,-2.4,0.,0.,0.,0.;                    109P     71
126,1,1,0,0,1,0,-0.2,-0.2,0.,0.,1.,1.,-24.4302242948705,11.,         111P     72
-24.,-24.4302242948705,11.,-22.,-0.2,0.,0.,0.,0.;                    111P     73
126,1,1,0,0,1,0,0.4,0.4,4.2,4.2,1.,1.,-2.43022429487046,11.,         113P     74
-22.,-2.43022429487046,49.,-22.,0.4,4.2,0.,0.,0.;                    113P     75
126,1,1,0,0,1,0,0.,0.,0.2,0.2,1.,1.,-0.430224294870465,49.,-22.,     115P     76
-2.43022429487046,49.,-22.,0.,0.2,0.,0.,0.;                          115P     77
126,1,1,0,0,1,0,0.4,0.4,4.2,4.2,1.,1.,-0.430224294870465,11.,        117P     78
-22.,-0.430224294870465,49.,-22.,0.4,4.2,0.,0.,0.;                   117P     79
126,1,1,0,0,1,0,-2.,-2.,0.,0.,1.,1.,-22.4302242948705,47.,18.,       119P     80
-2.43022429487047,47.,18.,-2.,0.,0.,0.,0.;                           119P     81
126,1,1,0,0,1,0,-2.,-2.,0.,0.,1.,1.,-22.4302242948705,47.,-2.,       121P     82
-22.4302242948705,47.,18.,-2.,0.,0.,0.,0.;                           121P     83
126,1,1,0,0,1,0,-2.,-2.,0.,0.,1.,1.,-2.43022429487047,47.,-2.,       123P     84
-22.4302242948705,47.,-2.,-2.,0.,0.,0.,0.;                           123P     85
126,1,1,0,0,1,0,-2.,-2.,0.,0.,1.,1.,-2.43022429487046,47.,18.,       125P     86
-2.43022429487046,47.,-2.,-2.,0.,0.,0.,0.;                           125P     87
126,1,1,0,0,1,0,-2.15,-2.15,-1.95,-1.95,1.,1.,-22.4302242948705,     127P     88
49.,-2.,-22.4302242948705,47.,-2.,-2.15,-1.95,0.,0.,0.;              127P     89
126,1,1,0,0,1,0,-2.,-2.,0.,0.,1.,1.,-22.4302242948705,49.,-2.,       129P     90
-2.43022429487047,49.,-2.,-2.,0.,0.,0.,0.;                           129P     91
126,1,1,0,0,1,0,1.95,1.95,2.15,2.15,1.,1.,-2.43022429487047,47.,     131P     92
-2.,-2.43022429487047,49.,-2.,1.95,2.15,0.,0.,0.;                    131P     93
126,1,1,0,0,1,0,0.4,0.4,4.2,4.2,1.,1.,-24.4302242948705,11.,         133P     94
-22.,-24.4302242948705,49.,-22.,0.4,4.2,0.,0.,0.;                    133P     95
126,1,1,0,0,1,0,2.2,2.2,2.4,2.4,1.,1.,-22.4302242948705,49.,         135P     96
-22.,-24.4302242948705,49.,-22.,2.2,2.4,0.,0.,0.;                    135P     97
126,1,1,0,0,1,0,0.4,0.4,4.2,4.2,1.,1.,-22.4302242948705,11.,         137P     98
-22.,-22.4302242948705,49.,-22.,0.4,4.2,0.,0.,0.;                    137P     99
126,1,1,0,0,1,0,0.,0.,4.,4.,1.,1.,-22.4302242948705,7.,18.,          139P    100
-22.4302242948705,47.,18.,0.,4.,0.,0.,0.;                            139P    101
126,1,1,0,0,1,0,-3.,-3.,1.,1.,1.,1.,-22.4302242948705,7.,-22.,       141P    102
-22.4302242948705,7.,18.,-3.,1.,0.,0.,0.;                            141P    103
126,1,1,0,0,1,0,-2.,-2.,0.,0.,1.,1.,-22.4302242948705,49.,-2.,       143P    104
-22.4302242948705,49.,-22.,-2.,0.,0.,0.,0.;                          143P    105
126,1,1,0,0,1,0,0.,0.,4.,4.,1.,1.,-2.43022429487047,7.,18.,          145P    106
-2.43022429487047,47.,18.,0.,4.,0.,0.,0.;                            145P    107
126,1,1,0,0,1,0,-1.5,-1.5,0.5,0.5,1.,1.,-22.4302242948705,7.,        147P    108
18.,-2.43022429487047,7.,18.,-1.5,0.5,0.,0.,0.;                      147P    109
126,1,1,0,0,1,0,-4.,-4.,-2.,-2.,1.,1.,-2.43022429487046,49.,         149P    110
-22.,-2.43022429487046,49.,-2.,-4.,-2.,0.,0.,0.;                     149P    111
126,1,1,0,0,1,0,-3.,-3.,1.,1.,1.,1.,-2.43022429487046,7.,18.,        151P    112
-2.43022429487046,7.,-22.,-3.,1.,0.,0.,0.;                           151P    113
126,1,1,0,0,1,0,-4.2,-4.2,0.,0.,1.,1.,-0.430224294870465,49.,        153P    114
20.,-0.430224294870465,49.,-22.,-4.2,0.,0.,0.,0.;                    153P    115
126,1,1,0,0,1,0,-4.,-4.,0.2,0.2,1.,1.,-24.4302242948705,49.,         155P    116
-22.,-24.4302242948705,49.,20.,-4.,0.2,0.,0.,0.;                     155P    117
126,1,1,0,0,1,0,-2.4,-2.4,0.,0.,1.,1.,-24.4302242948705,49.,20.,     157P    118
-0.430224294870465,49.,20.,-2.4,0.,0.,0.,0.;                         157P    119
126,8,2,0,1,0,0,-3.14159265358979,-3.14159265358979,                 159P    120
-3.14159265358979,-1.5707963267949,-1.5707963267949,0.,0.,           159P    121
1.5707963267949,1.5707963267949,3.14159265358979,                    159P    122
3.14159265358979,3.14159265358979,1.,0.707106781186548,1.,           159P    123
0.707106781186548,1.,0.707106781186548,1.,0.707106781186548,1.,      159P    124
-14.9302242948705,7.,5.43822312900582,-14.9302242948705,7.,          159P    125
2.93822312900582,-12.4302242948705,7.,2.93822312900582,              159P    126
-9.93022429487047,7.,2.93822312900582,-9.93022429487047,7.,          159P    127
5.43822312900582,-9.93022429487047,7.,7.93822312900582,              159P    128
-12.4302242948705,7.,7.93822312900582,-14.9302242948705,7.,          159P    129
7.93822312900582,-14.9302242948705,7.,5.43822312900582,              159P    130
-3.14159265358979,3.14159265358979,0.,0.,0.;                         159P    131
126,8,2,0,1,0,0,-3.14159265358979,-3.14159265358979,                 161P    132
-3.14159265358979,-1.5707963267949,-1.5707963267949,0.,0.,           161P    133
1.5707963267949,1.5707963267949,3.14159265358979,                    161P    134
3.14159265358979,3.14159265358979,1.,0.707106781186548,1.,           161P    135
0.707106781186548,1.,0.707106781186548,1.,0.707106781186548,1.,      161P    136
-6.43022429487047,7.,-12.,-6.43022429487047,7.,-6.,                  161P    137
-12.4302242948705,7.,-6.,-18.4302242948705,7.,-6.,                   161P    138
-18.4302242948705,7.,-12.,-18.4302242948705,7.,-18.,                 161P    139
-12.4302242948705,7.,-18.,-6.43022429487047,7.,-18.,                 161P    140
-6.43022429487047,7.,-12.,-3.14159265358979,3.14159265358979,0.,     161P    141
0.,0.;                                                               161P    142
126,1,1,0,0,1,0,0.,0.,0.5,0.5,1.,1.,-6.43022429487047,7.,-12.,       163P    143
-6.43022429487047,4.,-12.,0.,0.5,0.,0.,0.;                           163P    144
126,8,2,0,1,0,0,-3.14159265358979,-3.14159265358979,                 165P    145
-3.14159265358979,-1.5707963267949,-1.5707963267949,0.,0.,           165P    146
1.5707963267949,1.5707963267949,3.14159265358979,                    165P    147
3.14159265358979,3.14159265358979,1.,0.707106781186548,1.,           165P    148
0.707106781186548,1.,0.707106781186548,1.,0.707106781186548,1.,      165P    149
-6.43022429487047,4.,-12.,-6.43022429487047,4.,-6.,                  165P    150
-12.4302242948705,4.,-6.,-18.4302242948705,4.,-6.,                   165P    151
-18.4302242948705,4.,-12.,-18.4302242948705,4.,-18.,                 165P    152
-12.4302242948705,4.,-18.,-6.43022429487047,4.,-18.,                 165P    153
-6.43022429487047,4.,-12.,-3.14159265358979,3.14159265358979,0.,     165P    154
0.,0.;                                                               165P    155
126,4,2,0,0,0,0,0.,0.,0.,1.5707963267949,1.5707963267949,            167P    156
3.14159265358979,3.14159265358979,3.14159265358979,1.,               167P    157
0.707106781186548,1.,0.707106781186548,1.,-9.43022429487047,4.,      167P    158
-12.,-9.43022429487047,4.,-15.,-12.4302242948705,4.,-15.,            167P    159
-15.4302242948705,4.,-15.,-15.4302242948705,4.,-12.,0.,              167P    160
3.14159265358979,0.,0.,0.;                                           167P    161
126,4,2,0,0,0,0,3.14159265358979,3.14159265358979,                   169P    162
3.14159265358979,4.71238898038469,4.71238898038469,                  169P    163
6.28318530717959,6.28318530717959,6.28318530717959,1.,               169P    164
0.707106781186548,1.,0.707106781186548,1.,-15.4302242948705,4.,      169P    165
-12.,-15.4302242948705,4.,-9.,-12.4302242948705,4.,-9.,              169P    166
-9.43022429487047,4.,-9.,-9.43022429487047,4.,-12.,                  169P    167
3.14159265358979,6.28318530717959,0.,0.,0.;                          169P    168
126,1,1,0,0,1,0,-1.33333333333333,-1.33333333333333,0.,0.,1.,1.,     171P    169
-15.4302242948705,4.,-12.,-15.4302242948705,0.,-12.,                 171P    170
-1.33333333333333,0.,0.,0.,0.;                                       171P    171
126,8,2,0,1,0,0,-3.14159265358979,-3.14159265358979,                 173P    172
-3.14159265358979,-1.5707963267949,-1.5707963267949,0.,0.,           173P    173
1.5707963267949,1.5707963267949,3.14159265358979,                    173P    174
3.14159265358979,3.14159265358979,1.,0.707106781186548,1.,           173P    175
0.707106781186548,1.,0.707106781186548,1.,0.707106781186548,1.,      173P    176
-15.4302242948705,0.,-12.,-15.4302242948705,0.,-15.,                 173P    177
-12.4302242948705,0.,-15.,-9.43022429487047,0.,-15.,                 173P    178
-9.43022429487047,0.,-12.,-9.43022429487047,0.,-9.,                  173P    179
-12.4302242948705,0.,-9.,-15.4302242948705,0.,-9.,                   173P    180
-15.4302242948705,0.,-12.,-3.14159265358979,3.14159265358979,0.,     173P    181
0.,0.;                                                               173P    182
126,1,1,0,0,1,0,-2.8,-2.8,0.,0.,1.,1.,-14.9302242948705,7.,          175P    183
5.43822312900582,-14.9302242948705,0.,5.43822312900582,-2.8,0.,      175P    184
0.,0.,0.;                                                            175P    185
126,8,2,0,1,0,0,-3.14159265358979,-3.14159265358979,                 177P    186
-3.14159265358979,-1.5707963267949,-1.5707963267949,0.,0.,           177P    187
1.5707963267949,1.5707963267949,3.14159265358979,                    177P    188
3.14159265358979,3.14159265358979,1.,0.707106781186548,1.,           177P    189
0.707106781186548,1.,0.707106781186548,1.,0.707106781186548,1.,      177P    190
-14.9302242948705,0.,5.43822312900582,-14.9302242948705,0.,          177P    191
2.93822312900582,-12.4302242948705,0.,2.93822312900582,              177P    192
-9.93022429487047,0.,2.93822312900582,-9.93022429487047,0.,          177P    193
5.43822312900582,-9.93022429487047,0.,7.93822312900582,              177P    194
-12.4302242948705,0.,7.93822312900582,-14.9302242948705,0.,          177P    195
7.93822312900582,-14.9302242948705,0.,5.43822312900582,              177P    196
-3.14159265358979,3.14159265358979,0.,0.,0.;                         177P    197
126,1,1,0,0,1,0,0.,0.,4.4,4.4,1.,1.,-24.4302242948705,0.,20.,        179P    198
-24.4302242948705,0.,-24.,0.,4.4,0.,0.,0.;                           179P    199
126,1,1,0,0,1,0,0.,0.,4.9,4.9,1.,1.,-24.4302242948705,0.,20.,        181P    200
-24.4302242948705,49.,20.,0.,4.9,0.,0.,0.;                           181P    201
126,1,1,0,0,1,0,0.,0.,1.1,1.1,1.,1.,-24.4302242948705,0.,-24.,       183P    202
-24.4302242948705,11.,-24.,0.,1.1,0.,0.,0.;                          183P    203
126,1,1,0,0,1,0,0.,0.,2.4,2.4,1.,1.,-24.4302242948705,0.,-24.,       185P    204
-0.430224294870465,0.,-24.,0.,2.4,0.,0.,0.;                          185P    205
126,1,1,0,0,1,0,0.,0.,1.1,1.1,1.,1.,-0.430224294870465,0.,-24.,      187P    206
-0.430224294870465,11.,-24.,0.,1.1,0.,0.,0.;                         187P    207
126,1,1,0,0,1,0,0.,0.,4.4,4.4,1.,1.,-0.430224294870465,0.,-24.,      189P    208
-0.430224294870465,0.,20.,0.,4.4,0.,0.,0.;                           189P    209
126,1,1,0,0,1,0,0.,0.,4.9,4.9,1.,1.,-0.430224294870465,0.,20.,       191P    210
-0.430224294870465,49.,20.,0.,4.9,0.,0.,0.;                          191P    211
126,1,1,0,0,1,0,0.,0.,2.4,2.4,1.,1.,-0.430224294870465,0.,20.,       193P    212
-24.4302242948705,0.,20.,0.,2.4,0.,0.,0.;                            193P    213
128,1,1,1,1,0,0,1,0,0,0.199,0.199,2.201,2.201,-0.001,-0.001,         195P    214
0.401,0.401,1.,1.,1.,1.,-22.4402242948705,6.99,-22.,                 195P    215
-2.42022429487047,6.99,-22.,-22.4402242948705,11.01,-22.,            195P    216
-2.42022429487047,11.01,-22.,0.199,2.201,-0.001,0.401;               195P    217
128,1,1,1,1,0,0,1,0,0,-0.101,-0.101,0.101,0.101,-1.201,-1.201,       197P    218
1.201,1.201,1.,1.,1.,1.,-24.4402242948705,11.,-24.01,                197P    219
-24.4402242948705,11.,-21.99,-0.420224294870466,11.,-24.01,          197P    220
-0.420224294870466,11.,-21.99,-0.101,0.101,-1.201,1.201;             197P    221
128,1,1,1,1,0,0,1,0,0,-0.001,-0.001,0.201,0.201,0.399,0.399,         199P    222
4.201,4.201,1.,1.,1.,1.,-0.420224294870465,10.99,-22.,               199P    223
-2.44022429487047,10.99,-22.,-0.420224294870465,49.01,-22.,          199P    224
-2.44022429487047,49.01,-22.,-0.001,0.201,0.399,4.201;               199P    225
128,1,1,1,1,0,0,1,0,0,-0.00100000000000017,-0.00100000000000017,     201P    226
2.001,2.001,-0.001,-0.001,2.001,2.001,1.,1.,1.,1.,                   201P    227
-2.42022429487047,47.,18.01,-22.4402242948705,47.,18.01,             201P    228
-2.42022429487047,47.,-2.01,-22.4402242948705,47.,-2.01,             201P    229
-0.00100000000000017,2.001,-0.001,2.001;                             201P    230
128,1,1,1,1,0,0,1,0,0,-1.001,-1.001,1.001,1.001,                     203P    231
-0.101000000000001,-0.101000000000001,0.101,0.101,1.,1.,1.,1.,       203P    232
-2.42022429487047,46.99,-2.,-22.4402242948705,46.99,-2.,             203P    233
-2.42022429487047,49.01,-2.,-22.4402242948705,49.01,-2.,-1.001,      203P    234
1.001,-0.101000000000001,0.101;                                      203P    235
128,1,1,1,1,0,0,1,0,0,-0.001,-0.001,0.201,0.201,0.399,0.399,         205P    236
4.201,4.201,1.,1.,1.,1.,-22.4202242948705,10.99,-22.,                205P    237
-24.4402242948705,10.99,-22.,-22.4202242948705,49.01,-22.,           205P    238
-24.4402242948705,49.01,-22.,-0.001,0.201,0.399,4.201;               205P    239
128,1,1,1,1,0,0,1,0,0,-0.001,-0.001,4.001,4.001,-0.001,-0.001,       207P    240
4.201,4.201,1.,1.,1.,1.,-22.4302242948705,6.99,18.01,                207P    241
-22.4302242948705,6.99,-22.01,-22.4302242948705,49.01,18.01,         207P    242
-22.4302242948705,49.01,-22.01,-0.001,4.001,-0.001,4.201;            207P    243
128,1,1,1,1,0,0,1,0,0,-0.001,-0.001,2.001,2.001,-0.001,-0.001,       209P    244
4.001,4.001,1.,1.,1.,1.,-2.42022429487047,6.99,18.,                  209P    245
-22.4402242948705,6.99,18.,-2.42022429487047,47.01,18.,              209P    246
-22.4402242948705,47.01,18.,-0.001,2.001,-0.001,4.001;               209P    247
128,1,1,1,1,0,0,1,0,0,-0.001,-0.001,4.001,4.001,-0.001,-0.001,       211P    248
4.201,4.201,1.,1.,1.,1.,-2.43022429487046,6.99,-22.01,               211P    249
-2.43022429487046,6.99,18.01,-2.43022429487046,49.01,-22.01,         211P    250
-2.43022429487046,49.01,18.01,-0.001,4.001,-0.001,4.201;             211P    251
128,1,1,1,1,0,0,1,0,0,-2.101,-2.101,2.101,2.101,-1.201,-1.201,       213P    252
1.201,1.201,1.,1.,1.,1.,-24.4402242948705,49.,-22.01,                213P    253
-24.4402242948705,49.,20.01,-0.420224294870466,49.,-22.01,           213P    254
-0.420224294870466,49.,20.01,-2.101,2.101,-1.201,1.201;              213P    255
128,1,1,1,1,0,0,1,0,0,-1.001,-1.001,1.001,1.001,-2.001,-2.001,       215P    256
2.001,2.001,1.,1.,1.,1.,-22.4402242948705,7.,18.01,                  215P    257
-2.42022429487047,7.,18.01,-22.4402242948705,7.,-22.01,              215P    258
-2.42022429487047,7.,-22.01,-1.001,1.001,-2.001,2.001;               215P    259
128,1,8,1,2,0,1,0,0,1,0.,0.,0.5,0.5,-3.14159265358979,               217P    260
-3.14159265358979,-3.14159265358979,-1.5707963267949,                217P    261
-1.5707963267949,0.,0.,1.5707963267949,1.5707963267949,              217P    262
3.14159265358979,3.14159265358979,3.14159265358979,1.,1.,            217P    263
0.707106781186548,0.707106781186548,1.,1.,0.707106781186548,         217P    264
0.707106781186548,1.,1.,0.707106781186548,0.707106781186548,1.,      217P    265
1.,0.707106781186548,0.707106781186548,1.,1.,-6.43022429487047,      217P    266
7.,-12.,-6.43022429487047,4.,-12.,-6.43022429487047,7.,-6.,          217P    267
-6.43022429487047,4.,-6.,-12.4302242948705,7.,-6.,                   217P    268
-12.4302242948705,4.,-6.,-18.4302242948705,7.,-6.,                   217P    269
-18.4302242948705,4.,-6.,-18.4302242948705,7.,-12.,                  217P    270
-18.4302242948705,4.,-12.,-18.4302242948705,7.,-18.,                 217P    271
-18.4302242948705,4.,-18.,-12.4302242948705,7.,-18.,                 217P    272
-12.4302242948705,4.,-18.,-6.43022429487047,7.,-18.,                 217P    273
-6.43022429487047,4.,-18.,-6.43022429487047,7.,-12.,                 217P    274
-6.43022429487047,4.,-12.,0.,0.5,-3.14159265358979,                  217P    275
3.14159265358979;                                                    217P    276
128,1,1,1,1,0,0,1,0,0,-0.601,-0.601,0.601,0.601,-0.601,-0.601,       219P    277
0.601,0.601,1.,1.,1.,1.,-6.42022429487047,4.,-18.01,                 219P    278
-18.4402242948705,4.,-18.01,-6.42022429487047,4.,-5.99,              219P    279
-18.4402242948705,4.,-5.99,-0.601,0.601,-0.601,0.601;                219P    280
128,1,8,1,2,0,1,0,0,1,0.,0.,1.33333333333333,1.33333333333333,       221P    281
-3.14159265358979,-3.14159265358979,-3.14159265358979,               221P    282
-1.5707963267949,-1.5707963267949,0.,0.,1.5707963267949,             221P    283
1.5707963267949,3.14159265358979,3.14159265358979,                   221P    284
3.14159265358979,1.,1.,0.707106781186548,0.707106781186548,1.,       221P    285
1.,0.707106781186548,0.707106781186548,1.,1.,0.707106781186548,      221P    286
0.707106781186548,1.,1.,0.707106781186548,0.707106781186548,1.,      221P    287
1.,-15.4302242948705,0.,-12.,-15.4302242948705,4.,-12.,              221P    288
-15.4302242948705,0.,-9.,-15.4302242948705,4.,-9.,                   221P    289
-12.4302242948705,0.,-9.,-12.4302242948705,4.,-9.,                   221P    290
-9.43022429487047,0.,-9.,-9.43022429487047,4.,-9.,                   221P    291
-9.43022429487047,0.,-12.,-9.43022429487047,4.,-12.,                 221P    292
-9.43022429487047,0.,-15.,-9.43022429487047,4.,-15.,                 221P    293
-12.4302242948705,0.,-15.,-12.4302242948705,4.,-15.,                 221P    294
-15.4302242948705,0.,-15.,-15.4302242948705,4.,-15.,                 221P    295
-15.4302242948705,0.,-12.,-15.4302242948705,4.,-12.,0.,              221P    296
1.33333333333333,-3.14159265358979,3.14159265358979;                 221P    297
128,1,8,1,2,0,1,0,0,1,0.,0.,2.8,2.8,-3.14159265358979,               223P    298
-3.14159265358979,-3.14159265358979,-1.5707963267949,                223P    299
-1.5707963267949,0.,0.,1.5707963267949,1.5707963267949,              223P    300
3.14159265358979,3.14159265358979,3.14159265358979,1.,1.,            223P    301
0.707106781186548,0.707106781186548,1.,1.,0.707106781186548,         223P    302
0.707106781186548,1.,1.,0.707106781186548,0.707106781186548,1.,      223P    303
1.,0.707106781186548,0.707106781186548,1.,1.,-14.9302242948705,      223P    304
0.,5.43822312900582,-14.9302242948705,7.,5.43822312900582,           223P    305
-14.9302242948705,0.,7.93822312900582,-14.9302242948705,7.,          223P    306
7.93822312900582,-12.4302242948705,0.,7.93822312900582,              223P    307
-12.4302242948705,7.,7.93822312900582,-9.93022429487047,0.,          223P    308
7.93822312900582,-9.93022429487047,7.,7.93822312900582,              223P    309
-9.93022429487047,0.,5.43822312900582,-9.93022429487047,7.,          223P    310
5.43822312900582,-9.93022429487047,0.,2.93822312900582,              223P    311
-9.93022429487047,7.,2.93822312900582,-12.4302242948705,0.,          223P    312
2.93822312900582,-12.4302242948705,7.,2.93822312900582,              223P    313
-14.9302242948705,0.,2.93822312900582,-14.9302242948705,7.,          223P    314
2.93822312900582,-14.9302242948705,0.,5.43822312900582,              223P    315
-14.9302242948705,7.,5.43822312900582,0.,2.8,-3.14159265358979,      223P    316
3.14159265358979;                                                    223P    317
128,1,1,1,1,0,0,1,0,0,-0.001,-0.001,4.401,4.401,-0.001,-0.001,       225P    318
4.901,4.901,1.,1.,1.,1.,-24.4302242948705,-0.01,-24.01,              225P    319
-24.4302242948705,-0.01,20.01,-24.4302242948705,49.01,-24.01,        225P    320
-24.4302242948705,49.01,20.01,-0.001,4.401,-0.001,4.901;             225P    321
128,1,1,1,1,0,0,1,0,0,-0.001,-0.001,2.401,2.401,-0.001,-0.001,       227P    322
1.101,1.101,1.,1.,1.,1.,-0.420224294870465,-0.01,-24.,               227P    323
-24.4402242948705,-0.01,-24.,-0.420224294870465,11.01,-24.,          227P    324
-24.4402242948705,11.01,-24.,-0.001,2.401,-0.001,1.101;              227P    325
128,1,1,1,1,0,0,1,0,0,-0.001,-0.001,4.401,4.401,-0.001,-0.001,       229P    326
4.901,4.901,1.,1.,1.,1.,-0.430224294870465,-0.01,20.01,              229P    327
-0.430224294870465,-0.01,-24.01,-0.430224294870465,49.01,20.01,      229P    328
-0.430224294870465,49.01,-24.01,-0.001,4.401,-0.001,4.901;           229P    329
128,1,1,1,1,0,0,1,0,0,-0.001,-0.001,2.401,2.401,-0.001,-0.001,       231P    330
4.901,4.901,1.,1.,1.,1.,-24.4402242948705,-0.01,20.,                 231P    331
-0.420224294870466,-0.01,20.,-24.4402242948705,49.01,20.,            231P    332
-0.420224294870466,49.01,20.,-0.001,2.401,-0.001,4.901;              231P    333
128,1,1,1,1,0,0,1,0,0,-1.201,-1.201,1.201,1.201,-2.201,-2.201,       233P    334
2.201,2.201,1.,1.,1.,1.,-0.420224294870466,0.,20.01,                 233P    335
-24.4402242948705,0.,20.01,-0.420224294870466,0.,-24.01,             233P    336
-24.4402242948705,0.,-24.01,-1.201,1.201,-2.201,2.201;               233P    337
502,33,-22.4302242948705,7.,-22.,-22.4302242948705,11.,-22.,         235P    338
-2.43022429487046,7.,-22.,-2.43022429487046,11.,-22.,                235P    339
-24.4302242948705,11.,-22.,-0.430224294870465,11.,-22.,              235P    340
-0.430224294870465,11.,-24.,-24.4302242948705,11.,-24.,              235P    341
-2.43022429487046,49.,-22.,-0.430224294870465,49.,-22.,              235P    342
-22.4302242948705,47.,18.,-2.43022429487047,47.,18.,                 235P    343
-22.4302242948705,47.,-2.,-2.43022429487047,47.,-2.,                 235P    344
-22.4302242948705,49.,-2.,-2.43022429487047,49.,-2.,                 235P    345
-24.4302242948705,49.,-22.,-22.4302242948705,49.,-22.,               235P    346
-22.4302242948705,7.,18.,-2.43022429487047,7.,18.,                   235P    347
-0.430224294870465,49.,20.,-24.4302242948705,49.,20.,                235P    348
-14.9302242948705,7.,5.43822312900582,-6.43022429487047,7.,-12.,     235P    349
-6.43022429487047,4.,-12.,-9.43022429487047,4.,-12.,                 235P    350
-15.4302242948705,4.,-12.,-15.4302242948705,0.,-12.,                 235P    351
-14.9302242948705,0.,5.43822312900582,-24.4302242948705,0.,20.,      235P    352
-24.4302242948705,0.,-24.,-0.430224294870465,0.,-24.,                235P    353
-0.430224294870465,0.,20.;                                           235P    354
504,50,95,235,1,235,2,97,235,3,235,1,99,235,3,235,4,101,235,2,       237P    355
235,4,103,235,2,235,5,105,235,6,235,4,107,235,6,235,7,109,235,7,     237P    356
235,8,111,235,8,235,5,113,235,4,235,9,115,235,10,235,9,117,235,      237P    357
6,235,10,119,235,11,235,12,121,235,13,235,11,123,235,14,235,13,      237P    358
125,235,12,235,14,127,235,15,235,13,129,235,15,235,16,131,235,       237P    359
14,235,16,133,235,5,235,17,135,235,18,235,17,137,235,2,235,18,       237P    360
139,235,19,235,11,141,235,1,235,19,143,235,15,235,18,145,235,20,     237P    361
235,12,147,235,19,235,20,149,235,9,235,16,151,235,20,235,3,153,      237P    362
235,21,235,10,155,235,17,235,22,157,235,22,235,21,159,235,23,        237P    363
235,23,161,235,24,235,24,163,235,24,235,25,165,235,25,235,25,        237P    364
167,235,26,235,27,169,235,27,235,26,171,235,27,235,28,173,235,       237P    365
28,235,28,175,235,23,235,29,177,235,29,235,29,179,235,30,235,31,     237P    366
181,235,30,235,22,183,235,31,235,8,185,235,31,235,32,187,235,32,     237P    367
235,7,189,235,32,235,33,191,235,33,235,21,193,235,33,235,30;         237P    368
406,1,5HBody1;                                                       239P    369
314,62.7450980392157,62.7450980392157,62.7450980392157,13HSteel      241P    370
- Satin;                                                             241P    371
S      1G      2D    242P    371                                        T      1
